<?xml version="1.0" encoding="utf-8"?>
<!-- Generator: Adobe Illustrator 26.2.1, SVG Export Plug-In . SVG Version: 6.00 Build 0)  -->
<svg version="1.1" id="a" xmlns="http://www.w3.org/2000/svg" xmlns:xlink="http://www.w3.org/1999/xlink" x="0px" y="0px"
	 viewBox="0 0 21 19" style="enable-background:new 0 0 21 19;" xml:space="preserve">
<style type="text/css">
	.st0{fill:#C1C1C1;}
</style>
<path class="st0" d="M18.5,15h-1v-1h1c0.8,0,1.5-0.7,1.5-1.5v-10C20,1.7,19.3,1,18.5,1h-16C1.7,1,1,1.7,1,2.5v10
	C1,13.3,1.7,14,2.5,14h1v1h-1C1.1,15,0,13.9,0,12.5v-10C0,1.1,1.1,0,2.5,0h16C19.9,0,21,1.1,21,2.5v10C21,13.9,19.9,15,18.5,15z"/>
<path class="st0" d="M15.5,19h-10c-0.2,0-0.4-0.1-0.4-0.3S5,18.3,5.1,18.2l5-6c0.2-0.2,0.6-0.2,0.8,0l5,6c0.1,0.1,0.1,0.4,0.1,0.5
	C15.9,18.9,15.7,19,15.5,19L15.5,19z M6.6,18h7.9l-3.9-4.7L6.6,18L6.6,18z"/>
</svg>
